<svg width="63" height="55" viewBox="0 0 63 55" fill="none" xmlns="http://www.w3.org/2000/svg">
<path d="M49 10.83C49 10.83 57.3077 10.83 59.1538 10.83C61 10.83 61 13.83 61 13.83" stroke="#6A604C" stroke-width="4"/>
<path d="M32 10.83C32 10.83 23.6923 10.83 21.8462 10.83C20 10.83 20 13.83 20 13.83" stroke="#6A604C" stroke-width="4"/>
<path fill-rule="evenodd" clip-rule="evenodd" d="M40 20.83C45.5228 20.83 50 16.3528 50 10.83C50 5.30711 45.5228 0.829956 40 0.829956C34.4772 0.829956 30 5.30711 30 10.83C30 16.3528 34.4772 20.83 40 20.83ZM40 15.83C42.7614 15.83 45 13.5914 45 10.83C45 8.06853 42.7614 5.82996 40 5.82996C37.2386 5.82996 35 8.06853 35 10.83C35 13.5914 37.2386 15.83 40 15.83Z" fill="#6A604C"/>
<path d="M12.5 27.83L21.5933 13.58H3.40673L12.5 27.83Z" fill="#A68C5F"/>
<path d="M33.5 26.83L41.5 12.83H24.5L33.5 26.83Z" fill="#9D6C16"/>
<path d="M33.5 26.8342L41.5 40.8342H24.5L33.5 26.8342Z" fill="#DECFAC"/>
<path d="M33.5 54.8342L41.5 40.8342H24.5L33.5 54.8342Z" fill="#C5B08A"/>
<path d="M50.5 26.83L60 12.83H41.5L50.5 26.83Z" fill="#9D6C16"/>
<path d="M50.5 26.8342L60 40.8342H41.5L50.5 26.8342Z" fill="#DECFAC"/>
<path d="M50.5 54.8342L60 40.8342H41.5L50.5 54.8342Z" fill="#C5B08A"/>
<path d="M41.5 12.83L50.5 26.83H33.5L41.5 12.83Z" fill="#A68C5F"/>
<path d="M41.5 40.8342L50.5 26.8342H33.5L41.5 40.8342Z" fill="#CFC09D"/>
<path d="M41.5 40.8342L50.5 54.8342H33.5L41.5 40.8342Z" fill="#B99F6F"/>
<path d="M24.5 12.83L33.5 26.83H16.5L24.5 12.83Z" fill="#A68C5F"/>
<path d="M24.5 40.8342L33.5 26.8342H16.5L24.5 40.8342Z" fill="#CFC09D"/>
<path d="M24.5 40.8342L33.5 54.8342H16.5L24.5 40.8342Z" fill="#B99F6F"/>
<path d="M16.5 54.83L24.5 40.83H16.5V54.83Z" fill="#C5B08A"/>
<path d="M60 12.83L60 26.83L50.4999 26.83L60 12.83Z" fill="#A68C5F"/>
<rect x="60" y="12.83" width="3" height="14" fill="#A68C5F"/>
<path d="M60 40.8342L60 26.8342L50.4999 26.8342L60 40.8342Z" fill="#CFC09D"/>
<rect width="3" height="14" transform="matrix(1 0 0 -1 60 40.83)" fill="#CFC09D"/>
<path d="M60 40.8342L60 54.8342L50.4999 54.8342L60 40.8342Z" fill="#B99F6F"/>
<rect x="60" y="40.83" width="3" height="14" fill="#B99F6F"/>
<path d="M6 35.83L11.1962 26.83H0.803848L6 35.83Z" fill="#A68C5F"/>
<path d="M13.5 29.83L19.1292 40.33H7.87083L13.5 29.83Z" fill="#DECFAC"/>
</svg>
